<svg id="Layer_3" enable-background="new 0 0 64 64" height="512" viewBox="0 0 64 64" width="512" xmlns="http://www.w3.org/2000/svg"><g><path d="m53 1h-42c-1.654 0-3 1.346-3 3v56c0 1.654 1.346 3 3 3h42c1.654 0 3-1.346 3-3v-56c0-1.654-1.346-3-3-3zm1 3v5h-7c-.551 0-1-.449-1-1v-5h7c.551 0 1 .449 1 1zm-10 1h-24v-2h24zm-33-2h7v2h-8v-1c0-.551.449-1 1-1zm7 4v1c0 .551-.449 1-1 1h-7v-2zm35 54h-42c-.551 0-1-.448-1-1v-49h7c1.654 0 3-1.346 3-3v-1h24v1c0 1.654 1.346 3 3 3h7v49c0 .552-.449 1-1 1z"/><path d="m46 47h-28c-3.309 0-6 2.691-6 6s2.691 6 6 6h28c3.309 0 6-2.691 6-6s-2.691-6-6-6zm0 10h-28c-2.206 0-4-1.794-4-4s1.794-4 4-4h28c2.206 0 4 1.794 4 4s-1.794 4-4 4z"/><path d="m32 46c10.477 0 19-8.523 19-19s-8.523-19-19-19-19 8.523-19 19 8.523 19 19 19zm0-36c9.374 0 17 7.626 17 17s-7.626 17-17 17-17-7.626-17-17 7.626-17 17-17z"/><path d="m32 42c8.271 0 15-6.729 15-15s-6.729-15-15-15-15 6.729-15 15 6.729 15 15 15zm0-28c7.168 0 13 5.832 13 13s-5.832 13-13 13-13-5.832-13-13 5.832-13 13-13z"/><path d="m40 33c1.654 0 3-1.346 3-3v-6c0-1.654-1.346-3-3-3s-3 1.346-3 3v6c0 1.654 1.346 3 3 3zm-1-9c0-.551.449-1 1-1s1 .449 1 1v6c0 .551-.449 1-1 1s-1-.449-1-1z"/><path d="m46 50c-1.654 0-3 1.346-3 3s1.346 3 3 3 3-1.346 3-3-1.346-3-3-3zm0 4c-.551 0-1-.448-1-1s.449-1 1-1 1 .448 1 1-.449 1-1 1z"/><path d="m18 50c-1.654 0-3 1.346-3 3s1.346 3 3 3 3-1.346 3-3-1.346-3-3-3zm0 4c-.551 0-1-.448-1-1s.449-1 1-1 1 .448 1 1-.449 1-1 1z"/><circle cx="50" cy="6" r="2"/><path d="m34 50h-4c-1.654 0-3 1.346-3 3s1.346 3 3 3h4c1.654 0 3-1.346 3-3s-1.346-3-3-3zm0 4h-4c-.551 0-1-.448-1-1s.449-1 1-1h4c.551 0 1 .448 1 1s-.449 1-1 1z"/></g></svg>