<svg id="Layer_3" enable-background="new 0 0 64 64" height="512" viewBox="0 0 64 64" width="512" xmlns="http://www.w3.org/2000/svg"><g><path d="m45.293 53.293c-.456.456-1.063.707-1.707.707h-.172c-.645 0-1.251-.251-1.707-.707-.834-.834-1.942-1.293-3.121-1.293h-1.172c-1.179 0-2.287.459-3.121 1.293l-1 1 1.414 1.414 1-1c.456-.456 1.063-.707 1.707-.707h1.172c.645 0 1.251.251 1.707.707.834.834 1.942 1.293 3.121 1.293h.172c1.179 0 2.287-.459 3.121-1.293l1-1-1.414-1.414z"/><path d="m24.293 45.293-1 1c-.456.456-1.063.707-1.707.707h-.172c-.645 0-1.251-.251-1.707-.707-.834-.834-1.942-1.293-3.121-1.293h-1.172c-1.179 0-2.287.459-3.121 1.293l-1 1 1.414 1.414 1-1c.456-.456 1.063-.707 1.707-.707h1.172c.645 0 1.251.251 1.707.707.834.834 1.942 1.293 3.121 1.293h.172c1.179 0 2.287-.459 3.121-1.293l1-1z"/><path d="m46 45h2v2h-2z"/><path d="m25 53h2v2h-2z"/><path d="m31 49h2v2h-2z"/><path d="m14 54h2v2h-2z"/><path d="m35.868 22.033c-.435-1.737-1.997-3.033-3.868-3.033s-3.433 1.296-3.868 3.033c-7.38.128-27.132.859-27.132 4.967 0 .241.045.489.174.739l8.966 30.842c.681 2.045 2.588 3.419 4.743 3.419h34.234c2.155 0 4.062-1.374 4.755-3.456l8.954-30.805c.129-.25.174-.498.174-.739 0-4.108-19.752-4.839-27.132-4.967zm-3.868-1.033c1.103 0 2 .897 2 2s-.897 2-2 2-2-.897-2-2 .897-2 2-2zm-3.847 3.036c.46 1.702 2.002 2.964 3.847 2.964s3.387-1.262 3.847-2.964c14.304.246 23.326 1.801 24.989 2.964-1.832 1.292-12.482 3-28.836 3s-27.004-1.708-28.836-3c1.663-1.163 10.685-2.718 24.989-2.964zm32.109 5.362-2.031 6.988c-2.142-.699-4.62-.345-6.43 1.013l-.802.601c-1.717 1.289-4.28 1.29-5.999-.001l-.8-.599c-2.406-1.807-5.995-1.806-8.399-.001l-.802.601c-1.717 1.289-4.28 1.29-5.999-.001l-.8-.599c-2.406-1.807-5.995-1.806-8.399-.001l-.802.601c-1.717 1.289-4.28 1.29-5.999-.001l-.8-.599c-1.811-1.36-4.289-1.714-6.431-1.015l-2.031-6.988c1.448.5 3.628.984 6.916 1.422 5.709.762 13.29 1.181 21.346 1.181s15.637-.419 21.346-1.18c3.288-.439 5.468-.922 6.916-1.422zm-8.298 28.55c-.41 1.228-1.554 2.052-2.847 2.052h-34.234c-1.293 0-2.437-.824-2.835-2.015l-5.723-19.687c1.547-.535 3.358-.286 4.675.703l.8.599c2.406 1.807 5.995 1.806 8.399.001l.802-.601c1.717-1.289 4.28-1.29 5.999.001l.8.599c2.406 1.807 5.995 1.806 8.399.001l.802-.601c1.717-1.289 4.28-1.29 5.999.001l.8.599c1.203.903 2.694 1.4 4.2 1.4s2.997-.497 4.199-1.399l.802-.601c1.315-.988 3.126-1.237 4.674-.701z"/><path d="m58 22c2.757 0 5-2.243 5-5s-2.243-5-5-5-5 2.243-5 5 2.243 5 5 5zm0-8c1.654 0 3 1.346 3 3s-1.346 3-3 3-3-1.346-3-3 1.346-3 3-3z"/><path d="m47 9c2.206 0 4-1.794 4-4s-1.794-4-4-4-4 1.794-4 4 1.794 4 4 4zm0-6c1.103 0 2 .897 2 2s-.897 2-2 2-2-.897-2-2 .897-2 2-2z"/><path d="m44 16c1.654 0 3-1.346 3-3s-1.346-3-3-3-3 1.346-3 3 1.346 3 3 3zm0-4c.552 0 1 .449 1 1s-.448 1-1 1-1-.449-1-1 .448-1 1-1z"/><path d="m6 22c2.757 0 5-2.243 5-5s-2.243-5-5-5-5 2.243-5 5 2.243 5 5 5zm0-8c1.654 0 3 1.346 3 3s-1.346 3-3 3-3-1.346-3-3 1.346-3 3-3z"/><path d="m17 11c2.206 0 4-1.794 4-4s-1.794-4-4-4-4 1.794-4 4 1.794 4 4 4zm0-6c1.103 0 2 .897 2 2s-.897 2-2 2-2-.897-2-2 .897-2 2-2z"/><path d="m17 15c0 1.654 1.346 3 3 3s3-1.346 3-3-1.346-3-3-3-3 1.346-3 3zm4 0c0 .551-.448 1-1 1s-1-.449-1-1 .448-1 1-1 1 .449 1 1z"/></g></svg>